<svg width="40" height="40" viewBox="0 0 40 40" fill="none" xmlns="http://www.w3.org/2000/svg">
<rect width="40" height="40" rx="6" fill="#5030E5"/>
<path d="M25.925 21.125L14.075 21.125C12.95 21.125 12.5 21.6 12.5 22.8L12.5 25.825C12.5 27.025 12.95 27.5 14.075 27.5L25.925 27.5C27.05 27.5 27.5 27.025 27.5 25.825L27.5 22.8C27.5 21.6 27.05 21.125 25.925 21.125Z" fill="white"/>
<path d="M25.925 12.5L14.075 12.5C12.95 12.5 12.5 12.975 12.5 14.175L12.5 17.2C12.5 18.3917 12.95 18.875 14.075 18.875L25.925 18.875C27.05 18.875 27.5 18.4 27.5 17.2L27.5 14.175C27.5 12.975 27.05 12.5 25.925 12.5Z" fill="white"/>
</svg>
