<svg width="15" height="4" viewBox="0 0 15 4" fill="none" xmlns="http://www.w3.org/2000/svg">
<path d="M2.44318 3.16477C2.03409 3.16477 1.68371 3.02083 1.39205 2.73295C1.10417 2.44508 0.962121 2.09659 0.965909 1.6875C0.962121 1.28598 1.10417 0.943182 1.39205 0.659091C1.68371 0.371212 2.03409 0.227273 2.44318 0.227273C2.82955 0.227273 3.17045 0.371212 3.46591 0.659091C3.76515 0.943182 3.91667 1.28598 3.92045 1.6875C3.91667 1.96023 3.8447 2.20833 3.70455 2.43182C3.56818 2.6553 3.38826 2.83333 3.16477 2.96591C2.94508 3.09848 2.70455 3.16477 2.44318 3.16477ZM7.78131 3.16477C7.37222 3.16477 7.02184 3.02083 6.73017 2.73295C6.44229 2.44508 6.30025 2.09659 6.30403 1.6875C6.30025 1.28598 6.44229 0.943182 6.73017 0.659091C7.02184 0.371212 7.37222 0.227273 7.78131 0.227273C8.16767 0.227273 8.50858 0.371212 8.80403 0.659091C9.10328 0.943182 9.25479 1.28598 9.25858 1.6875C9.25479 1.96023 9.18282 2.20833 9.04267 2.43182C8.90631 2.6553 8.72638 2.83333 8.5029 2.96591C8.2832 3.09848 8.04267 3.16477 7.78131 3.16477ZM13.1194 3.16477C12.7103 3.16477 12.36 3.02083 12.0683 2.73295C11.7804 2.44508 11.6384 2.09659 11.6422 1.6875C11.6384 1.28598 11.7804 0.943182 12.0683 0.659091C12.36 0.371212 12.7103 0.227273 13.1194 0.227273C13.5058 0.227273 13.8467 0.371212 14.1422 0.659091C14.4414 0.943182 14.5929 1.28598 14.5967 1.6875C14.5929 1.96023 14.5209 2.20833 14.3808 2.43182C14.2444 2.6553 14.0645 2.83333 13.841 2.96591C13.6213 3.09848 13.3808 3.16477 13.1194 3.16477Z" fill="#0D062D"/>
</svg>
